<?xml version="1.0" standalone="no"?><?xml-stylesheet type="text/css" href="https://www.processon.com/themes/default/mind/icons/icons.css" ?><!DOCTYPE svg PUBLIC "-//W3C//DTD SVG 1.1//EN" "http://www.w3.org/Graphics/SVG/1.1/DTD/svg11.dtd">
<svg xmlns="http://www.w3.org/2000/svg" version="1.1" xlink="http://www.w3.org/1999/xlink" id="mind-svg-con" width="1450px" height="178px" style="position: absolute; left: 0px; top: 0px; width: 1450px; height: 178px; background: rgb(255, 255, 255); z-index: 999;"><defs></defs><g id="svgbackgroundid"><defs></defs><rect x="0" y="0" width="1450" height="178" fill="#ffffff"></rect></g><g transform="translate(-9876, -9853)" id="sdjakdjak3"><defs></defs><g class="svg-topic-con" transform="translate(0.5,0.5)"><path part="right" sub="true" id="line_e1eb93f8760ed284" d="M 10000 9941.5 L 10082 9941.5 C 10122 9941.5 10122 9908 10189 9908" stroke="#0D0B22" fill="none" stroke-width="2"></path><path part="right" sub="true" id="line_0f83950aaebc" d="M 10000 9941.5 L 10082 9941.5 C 10122 9941.5 10122 9979 10189 9979" stroke="#0D0B22" fill="none" stroke-width="2"></path></g><g class="svg-connection-con" transform="translate(0.5,0.5)"></g><g class="svg-freesums-con" transform="translate(0.5,0.5)"></g><g class="svg-freebos-con" transform="translate(0.5,0.5)"></g></g><g id="0f83950aaebc"><rect x="313" y="104" rx="7px" ry="7px" width="209" height="44" style="fill: #F3F3F4; stroke:none;"></rect><g><text text-anchor="start" align="top" anchor="start" font-size="16px" font-weight="normal" fill="rgb(13, 11, 34)" style="font-size:16px;font-family:微软雅黑;color:#0D0B22;font-style:normal;text-align:left;font-weight:normal;font-style: normal;"><tspan x="335" y="131.46875"><tspan>直接指针（HosSpot）</tspan></tspan></text></g></g><g id="191fab5a5938"><rect x="577.984375" y="110.703125" rx="1px" ry="1px" width="103" height="30" style="fill: transparent; stroke:none;"></rect><g><text text-anchor="start" align="top" anchor="start" font-size="15px" font-weight="400" fill="rgb(13, 11, 34)" style="font-size:15px;font-family:微软雅黑;color:#0D0B22;font-style:normal;text-align:left;font-weight:400;font-style: normal;"><tspan x="586.984375" y="131.15625"><tspan>速度更快</tspan></tspan></text></g><a href="https://www.processon.com/view/link/5fdf41cbe401fd02a5f75dcd" target="_blank" style="cursor:pointer;"><rect x="651.984375" y="118.15625" width="20" height="17" style="fill: transparent;"></rect><path d="M616.601336 477.134935c0-96.148827-76.528977-174.34477-170.628122-174.34477l-138.339742 0.027629c-98.788957 0.007163-179.177845 78.195943-179.177845 174.330444l0.017396 69.698408c-0.024559 96.15292 80.406285 174.359097 179.205475 174.359097l38.696324 0.00307c19.815301-0.024559 35.851533-15.624862 35.848463-34.882462 0.00307-19.250436-16.032138-34.853809-35.823903-34.853809l-38.749536 0c-59.268872-0.007163-109.451808-46.925752-109.465111-104.604406l0-69.733201c0-57.668421 50.154283-104.58394 109.462041-104.594173l138.329509-0.024559c56.472176 0.024559 100.867292 46.911426 100.890828 104.618732l1.496074 34.872229c0 9.627265 3.810792 18.365276 9.969049 24.65554 6.178723 6.310729 14.728446 10.209526 24.153096 10.206456 18.84623 0.00307 34.118052-15.600303 34.118052-34.860972L616.601336 477.134935zM895.526977 477.152331c0.024559-96.148827-80.406285-174.355003-179.205475-174.359097l-38.696324-0.00307c-19.815301 0.024559-35.851533 15.627932-35.851533 34.882462 0 19.254529 16.036231 34.853809 35.826973 34.857902l38.745443 0c59.268872 0.00307 109.451808 46.922682 109.469204 104.604406l0 69.733201c0 57.668421-50.154283 104.58394-109.462041 104.591103l-138.329509 0.027629c-56.472176-0.024559-100.867292-46.911426-100.890828-104.618732l-1.496074-34.872229c0-9.630335-3.810792-18.365276-9.969049-24.65554-6.181793-6.314823-14.728446-10.209526-24.153096-10.205433-18.84623-0.007163-34.119075 15.600303-34.119075 34.860972l0 34.872229c0 96.145757 76.532047 174.340677 170.631192 174.340677l138.339742-0.024559c98.788957-0.007163 179.177845-78.199013 179.173752-174.330444L895.526977 477.152331z" fill="#0072fc" transform="translate(651.984375, 118.15625) scale(0.017578125)"></path></a></g><g id="e1eb93f8760ed284"><rect x="313" y="33.0625" rx="7px" ry="7px" width="108" height="44" style="fill: #F3F3F4; stroke:none;"></rect><g><text text-anchor="start" align="top" anchor="start" font-size="16px" font-weight="normal" fill="rgb(13, 11, 34)" style="font-size:16px;font-family:微软雅黑;color:#0D0B22;font-style:normal;text-align:left;font-weight:normal;font-style: normal;"><tspan x="335" y="60.53125"><tspan>句柄访问</tspan></tspan></text></g></g><g id="491a86aae025"><rect x="477" y="30" rx="1px" ry="1px" width="943" height="50" style="fill: transparent; stroke:none;"></rect><g><text text-anchor="start" align="top" anchor="start" font-size="15px" font-weight="400" fill="rgb(13, 11, 34)" style="font-size:15px;font-family:微软雅黑;color:#0D0B22;font-style:normal;text-align:left;font-weight:400;font-style: normal;"><tspan x="486" y="49"><tspan>reference中存储稳定句柄地址，对象被移动（垃圾收集时对象移动很普遍）时只会改变句柄中实例数据指针即可，reference本省不需要</tspan></tspan><tspan x="486" y="70"><tspan>修改</tspan></tspan></text></g><a href="https://www.processon.com/view/link/618fc1f21e0853689b0d3cf4" target="_blank" style="cursor:pointer;"><rect x="1391" y="46.5" width="20" height="17" style="fill: transparent;"></rect><path d="M616.601336 477.134935c0-96.148827-76.528977-174.34477-170.628122-174.34477l-138.339742 0.027629c-98.788957 0.007163-179.177845 78.195943-179.177845 174.330444l0.017396 69.698408c-0.024559 96.15292 80.406285 174.359097 179.205475 174.359097l38.696324 0.00307c19.815301-0.024559 35.851533-15.624862 35.848463-34.882462 0.00307-19.250436-16.032138-34.853809-35.823903-34.853809l-38.749536 0c-59.268872-0.007163-109.451808-46.925752-109.465111-104.604406l0-69.733201c0-57.668421 50.154283-104.58394 109.462041-104.594173l138.329509-0.024559c56.472176 0.024559 100.867292 46.911426 100.890828 104.618732l1.496074 34.872229c0 9.627265 3.810792 18.365276 9.969049 24.65554 6.178723 6.310729 14.728446 10.209526 24.153096 10.206456 18.84623 0.00307 34.118052-15.600303 34.118052-34.860972L616.601336 477.134935zM895.526977 477.152331c0.024559-96.148827-80.406285-174.355003-179.205475-174.359097l-38.696324-0.00307c-19.815301 0.024559-35.851533 15.627932-35.851533 34.882462 0 19.254529 16.036231 34.853809 35.826973 34.857902l38.745443 0c59.268872 0.00307 109.451808 46.922682 109.469204 104.604406l0 69.733201c0 57.668421-50.154283 104.58394-109.462041 104.591103l-138.329509 0.027629c-56.472176-0.024559-100.867292-46.911426-100.890828-104.618732l-1.496074-34.872229c0-9.630335-3.810792-18.365276-9.969049-24.65554-6.181793-6.314823-14.728446-10.209526-24.153096-10.205433-18.84623-0.007163-34.119075 15.600303-34.119075 34.860972l0 34.872229c0 96.145757 76.532047 174.340677 170.631192 174.340677l138.339742-0.024559c98.788957-0.007163 179.177845-78.199013 179.173752-174.330444L895.526977 477.152331z" fill="#0072fc" transform="translate(1391, 46.5) scale(0.017578125)"></path></a></g><g transform="translate(313, 104)" id="sdjakdjak0"><g id="subline_0f83950aaebc" transform="translate(0.5,-0.5)"><path id="line_191fab5a5938" d="M 209 22 L 209 22 C 234 22 234 22 264.984375 22" p="0f83950aaebc" stroke="#0D0B22" stroke-linecap="round" fill="none" stroke-width="2"></path></g><g transform="translate(0.5,0)"></g><g class="svg-summary-con" transform="translate(0.5,0.5)"></g><g class="svg-boundary-con" transform="translate(0.5,0.5)"></g></g><g transform="translate(313, 30)" id="sdjakdjak1"><g id="subline_e1eb93f8760ed284" transform="translate(0.5,-0.5)"><path id="line_491a86aae025" d="M 108 25 L 108 25 C 133 25 133 25 164 25" p="e1eb93f8760ed284" stroke="#0D0B22" stroke-linecap="round" fill="none" stroke-width="2"></path></g><g transform="translate(0.5,0)"></g><g class="svg-summary-con" transform="translate(0.5,0.5)"></g><g class="svg-boundary-con" transform="translate(0.5,0.5)"></g></g><g transform="translate(30, 60)" id="sdjakdjak2"><g id="subline_root" transform="translate(0.5,-0.5)"></g><g transform="translate(0.5,0)"></g><g class="svg-summary-con" transform="translate(0.5,0.5)"></g><g class="svg-boundary-con" transform="translate(0.5,0.5)"></g></g><g id="root"><rect x="30" y="60" rx="7px" ry="7px" width="188" height="57" style="fill: rgb(13, 11, 34); stroke:none;"></rect><g><text text-anchor="start" align="top" anchor="start" font-size="18px" font-weight="normal" fill="rgb(255, 255, 255)" style="font-size:18px;font-family:微软雅黑;color:#fff;font-style:normal;text-align:left;font-weight:normal;font-style: normal;"><tspan x="70" y="94.546875"><tspan>对象访问定位</tspan></tspan></text></g></g></svg>
